# xmcd
#
# Track frame offsets:
#	150
#	17297
#	32869
#	51228
#	73335
#	88058
#	114860
#	139962
#	157778
#	175635
#	191305
#	207157
#
# Disc length: 3009 seconds
#
# Revision: 0
# Processed by: cddbd v1.5.1PL0 Copyright (c) Steve Scherf et al.
# Submitted via: audiograbber 1.83.01
#
DISCID=970bbf0c
DTITLE=Geoge Jamison - Spirit Of The Seasons
DYEAR=1997
DGENRE=New Age
TTITLE0=Moss Covered Banks
TTITLE1=October
TTITLE2=Shrouded By Mist
TTITLE3=Waterfall Beach
TTITLE4=Love Is Like A Rainbow
TTITLE5=Winter Into Spring
TTITLE6=Lady In The Morning
TTITLE7=Hornby Winter Soul
TTITLE8=The Wanderer
TTITLE9=Dream Wheel
TTITLE10=Visions of Paradise
TTITLE11=Summer Sunset
EXTD=
EXTT0=
EXTT1=
EXTT2=
EXTT3=
EXTT4=
EXTT5=
EXTT6=
EXTT7=
EXTT8=
EXTT9=
EXTT10=
EXTT11=
PLAYORDER=
